<svg width="354" height="302" viewBox="0 0 354 302" fill="none" xmlns="http://www.w3.org/2000/svg">
<mask id="mask0_50_897" style="mask-type:luminance" maskUnits="userSpaceOnUse" x="0" y="0" width="354" height="302">
<path d="M353.591 0.23291H0.40799V302H353.591V0.23291Z" fill="white"/>
</mask>
<g mask="url(#mask0_50_897)">
<mask id="mask1_50_897" style="mask-type:luminance" maskUnits="userSpaceOnUse" x="0" y="0" width="354" height="302">
<path d="M353.591 0.23291H0.40799V302H353.591V0.23291Z" fill="white"/>
</mask>
<g mask="url(#mask1_50_897)">
<path d="M110.734 120.152C110.734 120.152 106.324 116.54 99.401 127.263C95.7681 132.714 92.5023 138.402 89.625 144.287C89.625 144.287 87.858 146.501 86.389 144.787C84.92 143.073 83.139 138.447 80.289 138.956C77.335 139.482 76.061 142.589 76.127 147.356C76.193 152.123 75.952 162.556 75.927 163.504C75.903 164.431 75.237 165.732 74.049 164.723C72.861 163.714 66.349 154.772 62.287 158.118C58.225 161.464 60.587 174.703 60.821 176.155C61.055 177.607 60.713 178.183 60.005 178.464C59.297 178.745 57.391 175.533 55.434 173.064C53.477 170.595 50.774 168.079 48.595 170.205C46.416 172.331 44.806 181.919 52.385 198.536L56.402 206.006L64.911 206.406C83.174 206.145 91.15 200.588 92.139 197.706C93.128 194.824 89.696 193.462 86.628 192.748C83.56 192.034 79.841 191.687 79.793 190.927C79.745 190.167 80.119 189.615 81.531 189.202C82.943 188.789 95.919 185.258 97.206 180.159C98.493 175.06 87.623 172.998 86.206 172.359C84.789 171.72 85.676 170.559 86.506 170.14C87.336 169.721 96.682 165.028 101.015 163.048C105.348 161.068 107.615 158.589 106.822 155.693C106.062 152.901 101.122 153.271 98.942 152.677C96.762 152.083 98.007 149.538 98.007 149.538C102.094 144.418 105.835 139.033 109.207 133.417C115.935 122.57 110.642 120.095 110.642 120.095" fill="#EBEBEB"/>
<path d="M54.897 207.381C59.869 199.434 68.944 185.459 76.674 173.42C84.404 161.381 91.386 150.483 96.398 142.562L102.324 133.176L103.938 130.624L104.363 129.964C104.463 129.816 104.516 129.743 104.516 129.743C104.516 129.743 104.476 129.825 104.386 129.978L103.986 130.652C103.62 131.252 103.092 132.117 102.415 133.229C101.048 135.466 99.047 138.688 96.559 142.661C91.587 150.608 84.626 161.527 76.899 173.561C69.172 185.595 60.071 199.561 55.058 207.479" fill="#E0E0E0"/>
<path d="M82.518 145.521C82.5913 145.712 82.6429 145.912 82.672 146.115C82.756 146.5 82.861 147.061 82.984 147.754C83.228 149.143 83.517 151.068 83.796 153.199C84.065 155.299 84.307 157.199 84.496 158.656C84.584 159.311 84.658 159.863 84.717 160.308C84.759 160.509 84.7785 160.714 84.775 160.919C84.7003 160.728 84.6473 160.529 84.617 160.326C84.534 159.941 84.429 159.38 84.317 158.685C84.086 157.294 83.824 155.365 83.544 153.235C83.261 151.135 83.005 149.235 82.81 147.785C82.719 147.13 82.642 146.579 82.58 146.134C82.5392 145.932 82.5215 145.727 82.527 145.522" fill="#E0E0E0"/>
<path d="M85.531 161.147C85.518 161.075 89.462 160.306 94.339 159.43C99.216 158.554 103.182 157.9 103.194 157.971C103.206 158.042 99.263 158.812 94.385 159.689C89.507 160.566 85.543 161.219 85.531 161.147Z" fill="#E0E0E0"/>
<path d="M72.828 179.097C73.0373 179.085 73.2473 179.097 73.454 179.132L75.147 179.311C76.576 179.46 78.547 179.658 80.736 179.796C82.925 179.934 84.906 179.996 86.343 180.032L88.043 180.072C88.252 180.064 88.4612 180.079 88.667 180.117C88.4621 180.159 88.2532 180.178 88.044 180.175C87.644 180.195 87.06 180.213 86.344 180.219C84.905 180.234 82.915 180.202 80.722 180.058C78.529 179.914 76.553 179.692 75.122 179.495C74.41 179.395 73.834 179.305 73.438 179.232C73.2296 179.209 73.0244 179.163 72.826 179.096" fill="#E0E0E0"/>
<path d="M66.998 165.562C67.1113 165.719 67.2059 165.889 67.28 166.068C67.464 166.454 67.691 166.929 67.959 167.487C68.522 168.687 69.284 170.36 70.11 172.21C70.936 174.06 71.671 175.744 72.191 176.966L72.791 178.42C72.8753 178.594 72.9384 178.778 72.979 178.968C72.8657 178.811 72.7711 178.641 72.697 178.462L72.018 177.043C71.455 175.843 70.693 174.17 69.867 172.319C69.041 170.468 68.306 168.786 67.786 167.564L67.186 166.11C67.102 165.935 67.0389 165.751 66.998 165.562Z" fill="#E0E0E0"/>
<path d="M53.768 179.983C53.9063 180.188 54.0251 180.406 54.123 180.634C54.352 181.107 54.646 181.718 55.001 182.45C55.732 183.988 56.724 186.121 57.801 188.482C58.878 190.843 59.849 192.99 60.536 194.547L61.336 196.397C61.4442 196.619 61.5316 196.851 61.597 197.09C61.4589 196.884 61.3401 196.666 61.242 196.439L60.365 194.623C59.634 193.085 58.642 190.952 57.56 188.59C56.478 186.228 55.513 184.084 54.826 182.526C54.502 181.779 54.233 181.157 54.026 180.675C53.9172 180.453 53.8295 180.221 53.764 179.982" fill="#E0E0E0"/>
<path d="M61.53 196.631C61.7949 196.616 62.0605 196.624 62.324 196.655L64.478 196.805C66.297 196.93 68.81 197.092 71.588 197.193C74.366 197.294 76.888 197.327 78.708 197.336L80.867 197.347C81.1318 197.335 81.3971 197.347 81.66 197.381C81.3992 197.427 81.1348 197.45 80.87 197.45C80.36 197.477 79.623 197.504 78.71 197.522C76.886 197.561 74.362 197.562 71.578 197.457C68.794 197.352 66.278 197.164 64.463 196.992C63.554 196.903 62.821 196.824 62.314 196.759C62.0498 196.739 61.7878 196.697 61.531 196.632" fill="#E0E0E0"/>
<path d="M54.884 140.445C54.9219 141.744 54.848 143.043 54.663 144.33C54.1785 148.004 52.9752 151.547 51.122 154.757L51.039 154.614H51.208L51.127 154.757L29.057 193.901L28.919 194.146L28.769 193.907L5.43599 156.691L4.28899 154.859L4.11099 154.575H4.44599L4.28499 154.853C2.51993 151.819 1.32841 148.486 0.76999 145.021C0.492604 143.33 0.375417 141.617 0.41999 139.905C0.46599 139.057 0.51199 138.213 0.55799 137.373C0.683323 136.54 0.808656 135.711 0.93399 134.886C2.18265 128.539 5.53874 122.8 10.458 118.6C12.756 116.69 15.3487 115.166 18.135 114.088L19.15 113.71L19.65 113.522L20.169 113.384L22.226 112.848C23.5828 112.582 24.9571 112.415 26.338 112.348C27.6713 112.275 29.0081 112.299 30.338 112.42C30.99 112.472 31.628 112.613 32.264 112.704L33.211 112.857C33.522 112.922 33.826 113.017 34.131 113.095L35.938 113.584L37.65 114.236C37.931 114.347 38.217 114.444 38.488 114.565L39.288 114.965L40.851 115.755C44.451 117.843 47.5459 120.7 49.915 124.122C51.6816 126.705 53.0154 129.559 53.864 132.571C54.1714 133.667 54.4052 134.782 54.564 135.909C54.7082 136.729 54.7964 137.558 54.828 138.391C54.8513 139.057 54.8693 139.569 54.882 139.925C54.891 140.27 54.888 140.447 54.888 140.447C54.888 140.447 54.868 140.27 54.845 139.925C54.822 139.58 54.795 139.06 54.756 138.395C54.7095 137.566 54.6093 136.741 54.456 135.925C54.2865 134.805 54.0444 133.697 53.731 132.609C52.8633 129.622 51.5193 126.796 49.751 124.238C47.3848 120.857 44.3045 118.038 40.728 115.98L39.178 115.204L38.388 114.811C38.118 114.692 37.835 114.597 37.557 114.489L35.857 113.848L34.068 113.37C33.768 113.294 33.468 113.201 33.158 113.137L32.22 112.989C31.59 112.902 30.96 112.764 30.314 112.714C28.9985 112.598 27.6764 112.577 26.358 112.653C24.9934 112.722 23.6356 112.889 22.295 113.153L20.264 113.687L19.752 113.824L19.252 114.011L18.252 114.387C15.5022 115.458 12.944 116.967 10.677 118.857C5.82461 123.014 2.51686 128.686 1.28899 134.957C1.16632 135.771 1.04299 136.59 0.91899 137.413C0.87499 138.243 0.830323 139.077 0.78499 139.913C0.741743 141.604 0.858261 143.295 1.13299 144.964C1.68676 148.383 2.86397 151.67 4.60599 154.664L4.76899 154.943H4.44499L4.60299 154.66L5.74999 156.491L29.05 193.73L28.762 193.736L50.962 154.663L51.045 154.805H50.872L50.955 154.662C52.8139 151.479 54.0388 147.966 54.562 144.317C54.743 143.061 54.794 142.089 54.837 141.437C54.849 141.118 54.857 140.874 54.864 140.697C54.871 140.52 54.882 140.446 54.882 140.446" fill="#E0E0E0"/>
<path d="M44.983 140.133C44.9641 140.041 44.9534 139.948 44.951 139.854C44.937 139.654 44.918 139.381 44.893 139.036C44.881 138.854 44.869 138.654 44.855 138.436C44.841 138.218 44.783 137.977 44.744 137.717C44.6668 137.117 44.5465 136.523 44.384 135.94C43.9822 134.331 43.3396 132.791 42.478 131.374C40.4447 127.956 37.2834 125.353 33.5384 124.014C29.7933 122.675 25.6986 122.684 21.959 124.038C20.4047 124.578 18.9452 125.359 17.634 126.353C16.9518 126.856 16.3037 127.405 15.694 127.994C15.0915 128.614 14.5313 129.274 14.017 129.969C12.9527 131.393 12.1254 132.981 11.567 134.669C10.3843 138.16 10.3745 141.941 11.539 145.438C12.0891 147.127 12.9083 148.717 13.965 150.146C14.4756 150.844 15.0325 151.507 15.632 152.13C16.2385 152.723 16.8836 153.274 17.563 153.782C18.8697 154.782 20.3255 155.571 21.877 156.119C25.6107 157.484 29.7027 157.509 33.4527 156.189C37.2027 154.87 40.3776 152.288 42.434 148.886C43.3023 147.473 43.9526 145.937 44.363 144.33C44.5281 143.748 44.6514 143.155 44.732 142.555C44.772 142.295 44.821 142.055 44.846 141.836C44.871 141.617 44.874 141.416 44.887 141.236C44.913 140.892 44.933 140.621 44.948 140.419C44.9509 140.325 44.9623 140.232 44.982 140.14C44.9905 140.233 44.9905 140.327 44.982 140.42C44.976 140.62 44.968 140.895 44.957 141.242C44.95 141.425 44.943 141.627 44.934 141.848C44.925 142.069 44.872 142.311 44.834 142.573C44.7662 143.178 44.6532 143.778 44.496 144.367C44.1067 145.997 43.4689 147.558 42.605 148.994C41.3475 151.113 39.6532 152.941 37.6346 154.355C35.6161 155.769 33.3196 156.736 30.898 157.194C27.8372 157.763 24.6798 157.502 21.754 156.438C20.9749 156.156 20.2158 155.822 19.482 155.438C18.739 155.03 18.0252 154.571 17.346 154.064C16.6513 153.547 15.9915 152.985 15.371 152.382C14.7578 151.747 14.1882 151.071 13.666 150.359C12.5844 148.9 11.7456 147.277 11.182 145.551C9.99052 141.979 10.0003 138.116 11.21 134.551C11.7825 132.828 12.6294 131.209 13.718 129.757C14.244 129.048 14.8174 128.375 15.434 127.744C16.0575 127.144 16.72 126.585 17.417 126.072C18.0984 125.568 18.8142 125.113 19.559 124.709C20.2945 124.328 21.0553 123.998 21.836 123.721C24.7668 122.671 27.9252 122.426 30.983 123.01C33.4026 123.48 35.6943 124.46 37.7059 125.885C39.7175 127.309 41.4028 129.146 42.65 131.272C43.5068 132.713 44.1369 134.277 44.518 135.909C44.672 136.5 44.7819 137.102 44.847 137.709C44.88 137.971 44.923 138.209 44.941 138.434C44.959 138.659 44.955 138.858 44.961 139.041C44.97 139.388 44.977 139.66 44.982 139.863C44.9882 139.956 44.9862 140.05 44.976 140.143" fill="#E0E0E0"/>
<path d="M27.392 148.163L17.366 141.163L19.807 137.663L26.53 142.353L35.23 131.302L38.582 133.94L27.392 148.163Z" fill="#E0E0E0"/>
<path d="M177.043 96.4758L164.676 47.2958L214.99 46.4648L177.043 96.4758Z" fill="#EBEBEB"/>
<path d="M199.82 56.0215L182.536 78.7969L274.638 148.691L291.922 125.916L199.82 56.0215Z" fill="#EBEBEB"/>
</g>
<mask id="mask2_50_897" style="mask-type:luminance" maskUnits="userSpaceOnUse" x="0" y="0" width="354" height="302">
<path d="M353.591 0.23291H0.40799V302H353.591V0.23291Z" fill="white"/>
</mask>
<g mask="url(#mask2_50_897)">
<path d="M267.052 222.184L273.443 236.674C273.443 236.674 260.86 248.037 261.781 250.83L290.323 239.447L281.291 216.46L267.052 222.184Z" fill="#5BAFE8"/>
<path d="M290.323 239.448L289.323 237.167L262.332 248.934C262.332 248.934 261.282 249.994 261.782 250.834L290.323 239.448Z" fill="#263238"/>
<path d="M317.314 242.711L325.314 256.379C325.314 256.379 314.108 269.101 315.341 271.771L342.4 257.211L330.809 235.403L317.314 242.711Z" fill="#5BAFE8"/>
<path d="M342.4 257.211L341.15 255.059L315.675 269.824C315.675 269.824 314.752 270.996 315.346 271.771L342.4 257.211Z" fill="#263238"/>
<path d="M282.399 50.984L264.86 52.35L264.278 42.53C264.278 42.53 257.203 42.43 256.144 35.517C255.085 28.604 254.05 12.543 254.05 12.543C257.747 10.2993 261.977 9.08298 266.301 9.01969C270.626 8.95641 274.889 10.0484 278.65 12.183L279.787 12.828L282.399 50.984Z" fill="#FFBE9D"/>
<path d="M264.252 42.4341C267.457 42.0448 270.473 40.7101 272.916 38.6001C272.916 38.6001 271.382 44.0351 264.388 44.3831L264.252 42.4341Z" fill="#EB996E"/>
<path d="M279.943 20.1189C280.054 20.0509 284.502 18.0429 285.016 22.7979C285.53 27.5529 280.652 27.0869 280.629 26.9519C280.606 26.8169 279.943 20.1189 279.943 20.1189Z" fill="#FFBE9D"/>
<path d="M281.886 24.9939C281.905 24.9769 281.975 25.0429 282.122 25.0939C282.328 25.1572 282.551 25.1378 282.743 25.0399C283.029 24.8117 283.249 24.5116 283.38 24.1703C283.512 23.8291 283.551 23.459 283.492 23.0979C283.46 22.6893 283.337 22.293 283.132 21.9379C283.071 21.7942 282.977 21.6673 282.856 21.5682C282.736 21.4691 282.593 21.4007 282.44 21.3689C282.342 21.3542 282.242 21.3742 282.157 21.4255C282.072 21.4769 282.008 21.5563 281.976 21.6499C281.926 21.7889 281.967 21.8809 281.943 21.8919C281.919 21.9029 281.832 21.8229 281.849 21.6229C281.863 21.5025 281.917 21.3903 282.003 21.3049C282.123 21.1921 282.283 21.1311 282.448 21.1349C282.647 21.1522 282.839 21.2203 283.005 21.3329C283.17 21.4455 283.304 21.5988 283.393 21.7779C283.64 22.1677 283.788 22.612 283.823 23.0719C283.892 23.4926 283.836 23.9245 283.66 24.3131C283.485 24.7017 283.198 25.0298 282.837 25.2559C282.713 25.3071 282.58 25.3296 282.446 25.322C282.313 25.3144 282.183 25.2768 282.066 25.2119C281.906 25.1119 281.866 25.0119 281.885 24.9969" fill="#EB996E"/>
<path d="M257.037 23.421C257.071 23.6789 257.205 23.9133 257.409 24.0744C257.613 24.2356 257.872 24.3108 258.131 24.284C258.258 24.2764 258.382 24.2433 258.497 24.1869C258.611 24.1304 258.713 24.0517 258.796 23.9554C258.879 23.859 258.942 23.747 258.982 23.6259C259.021 23.5047 259.036 23.3769 259.025 23.25C258.991 22.9922 258.858 22.7577 258.654 22.5964C258.45 22.4351 258.191 22.3596 257.932 22.386C257.805 22.3938 257.68 22.427 257.566 22.4835C257.452 22.5401 257.35 22.6189 257.267 22.7153C257.184 22.8118 257.121 22.9239 257.081 23.045C257.042 23.1662 257.027 23.2941 257.038 23.421" fill="#263238"/>
<path d="M256.729 22.098C256.869 22.21 257.541 21.55 258.605 21.404C259.666 21.242 260.524 21.679 260.621 21.533C260.67 21.467 260.512 21.252 260.137 21.052C259.632 20.7974 259.061 20.7056 258.502 20.789C257.949 20.8646 257.434 21.1147 257.032 21.503C256.74 21.803 256.662 22.049 256.732 22.098" fill="#263238"/>
<path d="M267.383 22.224C267.417 22.4821 267.55 22.7167 267.755 22.8781C267.959 23.0394 268.218 23.1147 268.477 23.088C268.604 23.0802 268.729 23.0471 268.843 22.9905C268.957 22.934 269.059 22.8552 269.142 22.7587C269.225 22.6623 269.288 22.5502 269.328 22.429C269.367 22.3078 269.382 22.18 269.371 22.053C269.337 21.7951 269.204 21.5607 269 21.3993C268.796 21.238 268.537 21.1626 268.278 21.189C268.151 21.1968 268.026 21.23 267.912 21.2865C267.798 21.3431 267.696 21.4219 267.613 21.5183C267.53 21.6147 267.467 21.7268 267.427 21.848C267.388 21.9692 267.373 22.0971 267.384 22.224" fill="#263238"/>
<path d="M267.213 20.826C267.354 20.938 268.026 20.278 269.089 20.132C270.15 19.97 271.008 20.408 271.105 20.26C271.153 20.195 270.997 19.979 270.621 19.78C270.116 19.5259 269.544 19.434 268.985 19.517C268.432 19.593 267.917 19.8431 267.515 20.231C267.224 20.531 267.145 20.777 267.215 20.826" fill="#263238"/>
<path d="M264.462 29.2579C263.877 29.1612 263.282 29.138 262.691 29.1889C262.415 29.1989 262.15 29.1809 262.079 29.0019C262.017 28.7243 262.041 28.4345 262.148 28.1709C262.311 27.4776 262.482 26.7506 262.66 25.9899C263.159 24.1329 263.508 22.2388 263.703 20.3259C263.055 22.1385 262.553 24.0001 262.203 25.8929C262.037 26.6569 261.877 27.3859 261.725 28.0819C261.6 28.4337 261.603 28.8182 261.734 29.1679C261.786 29.2579 261.859 29.3348 261.945 29.3926C262.032 29.4505 262.131 29.4879 262.234 29.5019C262.39 29.5217 262.548 29.5217 262.704 29.5019C263.296 29.495 263.885 29.413 264.456 29.2579" fill="#263238"/>
<path d="M267.697 29.5541C267.523 29.5681 267.683 30.7231 266.81 31.6821C265.937 32.6411 264.69 32.6821 264.704 32.8491C264.698 32.9241 265.01 33.0351 265.531 32.9761C266.209 32.8908 266.835 32.5689 267.299 32.0671C267.744 31.585 267.984 30.9489 267.969 30.2931C267.945 29.8041 267.776 29.5361 267.698 29.5541" fill="#263238"/>
<path d="M266.353 16.6961C266.499 16.9701 267.541 16.6841 268.811 16.6591C270.08 16.6091 271.137 16.8321 271.267 16.5491C271.323 16.4141 271.109 16.1671 270.667 15.9491C270.076 15.682 269.431 15.5532 268.783 15.5724C268.134 15.5917 267.498 15.7585 266.924 16.0601C266.492 16.3091 266.293 16.5691 266.357 16.7001" fill="#263238"/>
<path d="M256.685 18.9681C256.906 19.1831 257.604 18.8291 258.485 18.6941C259.36 18.5281 260.135 18.6281 260.271 18.3501C260.329 18.2171 260.177 17.9911 259.819 17.8091C259.342 17.5971 258.813 17.5314 258.299 17.6204C257.784 17.7094 257.308 17.9491 256.93 18.3091C256.654 18.6011 256.586 18.8651 256.686 18.9711" fill="#263238"/>
<path d="M250.062 8.64903C249.953 8.2265 249.953 7.78324 250.062 7.36071C250.171 6.93818 250.385 6.55019 250.685 6.23303C250.997 5.92876 251.408 5.74596 251.843 5.71754C252.278 5.68913 252.709 5.81696 253.058 6.07803C252.952 5.79795 252.907 5.4988 252.924 5.19999C252.942 4.90117 253.022 4.60936 253.159 4.34347C253.297 4.07758 253.489 3.84356 253.722 3.65656C253.956 3.46957 254.226 3.33379 254.516 3.25803C255.635 3.02803 256.716 3.74503 257.851 3.89103C258.973 3.96696 260.089 3.67675 261.031 3.06403C261.997 2.50803 262.874 1.80303 263.858 1.27803C265.937 0.169724 268.369 -0.0733168 270.625 0.601741C272.882 1.2768 274.781 2.81538 275.91 4.88303C276.656 4.58466 277.475 4.51965 278.259 4.69658C279.043 4.87352 279.754 5.28408 280.3 5.87403C281.37 7.08793 281.949 8.65635 281.926 10.274C281.927 11.3565 281.808 12.4359 281.571 13.492C281.584 13.581 281.605 13.667 281.615 13.756C282.079 17.573 282.277 22.104 280.657 22.356C277.833 22.797 277.757 17.37 277.757 17.37C274.095 16.516 274.657 11.13 273.677 10.462C272.697 9.79403 270.623 8.21603 263.877 12.955C261.34 14.5477 258.366 15.299 255.377 15.102C255.316 15.102 255.253 15.096 255.191 15.091H255.148C255.125 15.091 255.108 15.078 255.085 15.075C254.403 15.0025 253.736 14.824 253.109 14.546C252.372 14.2506 251.749 13.7275 251.331 13.053C251.129 12.7134 251.031 12.3225 251.047 11.9279C251.063 11.5332 251.194 11.1518 251.423 10.83C250.766 10.2505 250.294 9.49122 250.064 8.64603" fill="#263238"/>
<path d="M264.252 48.549L265.035 76.03L282.135 39.22L281.706 35.813L264.252 48.549Z" fill="#EBEBEB"/>
<path d="M275.595 130.7C274.968 130.9 239.368 166.909 240.168 173.376C240.968 179.843 266.31 227.738 266.31 227.738L284.391 218.824L267.43 176.835L267.652 174.23L288.381 157.247L287.274 129.931L275.595 130.7Z" fill="#263238"/>
<path d="M283.272 137.796C283.686 138.423 289.85 194.987 291.503 197.913C293.156 200.839 317.918 249.129 317.918 249.129L336.303 241.721L313.859 188.65L316.417 138.421L315.032 124.237L287.274 129.928L283.272 137.796Z" fill="#263238"/>
<path d="M291.18 196.918C291.123 196.733 291.083 196.544 291.06 196.352C290.992 195.941 290.903 195.398 290.792 194.718L289.881 188.701C289.143 183.578 288.135 176.571 287.022 168.829C285.953 161.079 284.985 154.065 284.278 148.938C283.949 146.422 283.678 144.371 283.491 142.904C283.411 142.22 283.346 141.674 283.297 141.26C283.266 141.069 283.252 140.876 283.256 140.683C283.313 140.868 283.353 141.057 283.376 141.249C283.444 141.66 283.532 142.203 283.644 142.882L284.555 148.899C285.292 154.022 286.3 161.03 287.414 168.775C288.483 176.522 289.45 183.536 290.158 188.663C290.486 191.179 290.758 193.23 290.945 194.698C291.025 195.381 291.09 195.929 291.139 196.341C291.17 196.532 291.184 196.725 291.18 196.918Z" fill="#455A64"/>
<path d="M313.392 187.028C312.808 190.047 311.965 193.01 310.874 195.885C311.458 192.866 312.3 189.903 313.392 187.028Z" fill="#455A64"/>
<path d="M316.173 199.838C315.763 199.431 315.425 198.958 315.173 198.438C313.798 195.998 313.201 193.196 313.461 190.407C313.481 189.831 313.599 189.262 313.808 188.724C313.374 192.586 314.205 196.485 316.177 199.834" fill="#455A64"/>
<path d="M261.501 170.743C263.707 171.614 265.517 173.264 266.587 175.381C266.487 175.446 265.611 174.16 264.203 172.887C262.795 171.614 261.444 170.848 261.503 170.743" fill="#455A64"/>
<path d="M264.292 169.073C265.687 170.199 266.656 171.768 267.038 173.52C266.554 172.795 266.11 172.043 265.708 171.269C265.196 170.563 264.723 169.828 264.292 169.069" fill="#455A64"/>
<path d="M266.75 86.5551L271.301 109.133L275.001 140.641C275.001 140.641 290.27 138.509 296.777 136.449C304.325 134.06 320.748 132.025 320.748 132.025L317.98 134.764C323.856 133.119 327.598 127.511 327.598 127.511C317.469 118.118 308.83 98.7941 308.83 98.7941L301.13 60.5561C301.13 60.5561 299.961 55.1621 299.255 52.7631C298.549 50.3641 286.855 42.6271 285.234 41.6491L284.215 41.1681L283.891 38.1031L282.691 37.3821L270.032 48.8791C267.572 51.1155 266.009 54.1692 265.632 57.4721C265.1 62.2471 264.915 67.0544 265.08 71.8561C265.231 76.3351 266.752 86.5561 266.752 86.5561" fill="#5BAFE8"/>
<path d="M275.439 47.4439C275.439 47.4439 268.753 51.0289 267.593 54.0709C266.433 57.1129 269.881 90.4709 269.881 90.4709L245.871 90.9209L245.796 105.228C245.796 105.228 283.933 108.241 285.417 106.18C287.423 103.392 289.755 77.3299 289.755 77.3299L290.621 58.5789C290.621 58.5789 288.411 44.2789 275.439 47.4499" fill="#4BA9DD"/>
<g opacity="0.3">
<mask id="mask3_50_897" style="mask-type:luminance" maskUnits="userSpaceOnUse" x="270" y="81" width="21" height="30">
<path d="M290.821 81.8301H270.851V110.175H290.821V81.8301Z" fill="white"/>
</mask>
<g mask="url(#mask3_50_897)">
<path d="M271.302 109.135C274.405 110.112 277.68 110.419 280.911 110.035C284.294 109.721 287.735 107.87 289.011 104.724C289.99 102.315 289.581 99.5991 289.73 97.0031C289.858 94.7481 290.418 92.5411 290.758 90.3031C291.098 88.0651 289.94 83.9641 289.202 81.8281C289.202 81.8281 288.346 97.3101 285.925 103.81C285.651 104.72 285.138 105.54 284.44 106.184C283.497 106.764 282.409 107.064 281.302 107.048C277.816 107.178 274.325 107.108 270.847 106.837" fill="#4BA9DD"/>
</g>
</g>
<path d="M290.58 60.5959C290.588 60.7091 290.588 60.8228 290.58 60.936C290.571 61.178 290.559 61.508 290.542 61.936C290.499 62.836 290.436 64.118 290.357 65.767C290.27 67.436 290.163 69.467 290.039 71.826C289.895 74.187 289.818 76.8809 289.527 79.8459C289.269 82.8119 288.959 86.0589 288.586 89.5399C288.213 93.0209 287.786 96.74 287.125 100.63C286.966 101.623 286.746 102.605 286.466 103.571C286.139 104.579 285.54 105.476 284.734 106.164C283.906 106.88 282.841 107.261 281.747 107.231C280.688 107.255 279.627 107.231 278.554 107.214C274.268 107.108 269.838 106.889 265.302 106.643C258.488 106.266 251.919 105.843 245.781 105.411L245.604 105.398V105.221C245.635 100.14 245.664 95.352 245.691 90.937V90.7719H245.855L269.029 90.2719L275.513 90.159L277.22 90.142C277.606 90.142 277.806 90.1549 277.806 90.1549C277.806 90.1549 277.606 90.1769 277.221 90.1949L275.516 90.2629L269.035 90.4689L245.863 91.1089L246.028 90.9399C246.013 95.3549 245.997 100.14 245.981 105.224L245.805 105.035C251.942 105.454 258.505 105.873 265.322 106.249C269.855 106.495 274.283 106.717 278.559 106.828C279.628 106.842 280.689 106.871 281.732 106.848C282.742 106.883 283.728 106.534 284.491 105.872C285.245 105.23 285.805 104.391 286.111 103.449C286.387 102.502 286.605 101.539 286.763 100.566C287.432 96.6969 287.858 92.979 288.258 89.504C288.658 86.029 288.97 82.7829 289.246 79.8199C289.554 76.8589 289.651 74.167 289.817 71.81C289.966 69.455 290.095 67.425 290.201 65.756C290.312 64.111 290.401 62.8249 290.459 61.9319C290.492 61.5089 290.519 61.179 290.536 60.938C290.541 60.8244 290.554 60.7113 290.577 60.5999" fill="#4BA9DD"/>
<path d="M250.509 105.011C250.323 102.703 250.269 100.387 250.347 98.073C250.293 95.7584 250.372 93.4426 250.582 91.137C250.767 93.445 250.821 95.7618 250.743 98.076C250.797 100.39 250.718 102.706 250.509 105.011Z" fill="#4BA9DD"/>
<path d="M247.962 93.3101C247.916 93.2841 248.156 93.0171 248.612 93.1681C248.746 93.2163 248.862 93.3018 248.949 93.4146C249.035 93.5273 249.087 93.6625 249.099 93.8041C249.113 93.9796 249.074 94.1553 248.987 94.3083C248.9 94.4612 248.768 94.5842 248.61 94.6611C248.449 94.7281 248.273 94.747 248.101 94.7156C247.93 94.6842 247.771 94.6038 247.645 94.4841C247.544 94.3887 247.47 94.2689 247.429 94.1363C247.388 94.0036 247.382 93.8627 247.411 93.7271C247.518 93.2751 247.834 93.1781 247.844 93.2271C247.883 93.2711 247.694 93.4391 247.688 93.7641C247.684 93.8495 247.7 93.9346 247.735 94.0127C247.769 94.0909 247.822 94.1598 247.888 94.2141C247.965 94.2769 248.058 94.3183 248.156 94.3339C248.254 94.3495 248.355 94.3389 248.448 94.3031C248.535 94.2574 248.607 94.189 248.658 94.1051C248.709 94.0212 248.736 93.9251 248.736 93.8271C248.735 93.7452 248.712 93.665 248.67 93.5948C248.628 93.5245 248.568 93.4667 248.496 93.4271C248.22 93.2621 247.988 93.3661 247.963 93.3151" fill="#4BA9DD"/>
<path d="M301.239 63.834C301.239 63.834 313.73 80.167 315.252 84.618C316.774 89.069 315.598 95.459 313.052 98.518C310.506 101.577 308.452 100.331 308.452 100.331L301.239 63.834Z" fill="#5BAFE8"/>
<path d="M308.011 99.0171C305.954 99.6374 303.829 100.002 301.683 100.103C303.74 99.482 305.865 99.1172 308.011 99.0171Z" fill="#5BAFE8"/>
<path d="M310.413 111.059C310.558 111.333 310.671 111.622 310.752 111.921C310.942 112.484 311.229 113.294 311.599 114.287C312.568 116.873 313.688 119.4 314.954 121.855C316.229 124.307 317.631 126.691 319.154 128.998C319.737 129.885 320.219 130.598 320.554 131.085C320.745 131.329 320.909 131.593 321.042 131.873C320.812 131.663 320.607 131.429 320.43 131.173C320.054 130.71 319.536 130.021 318.922 129.152C317.323 126.88 315.881 124.502 314.605 122.034C313.327 119.567 312.234 117.007 311.338 114.377C310.999 113.367 310.752 112.54 310.607 111.962C310.51 111.668 310.446 111.363 310.416 111.055" fill="#5BAFE8"/>
<g opacity="0.3">
<mask id="mask4_50_897" style="mask-type:luminance" maskUnits="userSpaceOnUse" x="311" y="112" width="12" height="19">
<path d="M322.18 112.993H311.261V130.501H322.18V112.993Z" fill="white"/>
</mask>
<g mask="url(#mask4_50_897)">
<path d="M311.261 112.993C313.241 116.521 315.275 120.118 318.291 122.814C319.427 123.68 320.457 124.678 321.359 125.786C321.802 126.348 322.075 127.026 322.145 127.738C322.214 128.451 322.077 129.169 321.751 129.806C321.635 130.03 321.454 130.213 321.232 130.333C321.01 130.453 320.757 130.504 320.506 130.479C320.168 130.357 319.88 130.124 319.69 129.819C315.922 124.963 313.108 119.437 311.396 113.534" fill="#5BAFE8"/>
</g>
</g>
<g opacity="0.3">
<mask id="mask5_50_897" style="mask-type:luminance" maskUnits="userSpaceOnUse" x="302" y="66" width="10" height="35">
<path d="M311.724 66.2971H302.289V100.267H311.724V66.2971Z" fill="white"/>
</mask>
<g mask="url(#mask5_50_897)">
<path d="M309.608 100.263C310.415 99.582 311.029 98.7012 311.39 97.7087C311.75 96.7161 311.845 95.6464 311.663 94.6061C311.275 92.5333 310.575 90.5311 309.589 88.6671C306.992 82.9301 304.956 76.9557 303.508 70.8271L302.287 66.2971L308.466 98.6211L309.608 100.263Z" fill="#5BAFE8"/>
</g>
</g>
<path d="M278.689 45.9921C279.418 45.1714 280.196 44.3947 281.017 43.6661C281.745 42.8444 282.521 42.067 283.342 41.3381C282.821 42.3223 282.128 43.2054 281.296 43.9461C280.555 44.7782 279.672 45.4714 278.688 45.9931" fill="#5BAFE8"/>
<path d="M277.427 48.76C277.447 48.826 276.706 49.049 275.601 49.596C272.705 51.0318 270.372 53.3929 268.97 56.305C268.437 57.417 268.223 58.16 268.156 58.141C268.151 57.9568 268.181 57.7733 268.243 57.6C268.361 57.1176 268.519 56.646 268.716 56.19C270.015 53.1271 272.437 50.6768 275.484 49.341C275.938 49.1391 276.408 48.9752 276.889 48.851C277.061 48.7872 277.244 48.756 277.428 48.759" fill="#5BAFE8"/>
<path d="M310.975 103.516C310.894 103.421 310.827 103.315 310.775 103.202L310.275 102.265L308.475 98.748L308.468 98.734V98.716C307.687 95.137 306.581 89.916 305.38 84.111C304.273 78.639 303.269 73.688 302.532 70.032C302.193 68.269 301.916 66.822 301.712 65.757C301.63 65.287 301.562 64.901 301.512 64.591C301.46 64.5915 301.41 64.5728 301.372 64.5384C301.333 64.504 301.309 64.4565 301.303 64.4051C301.298 64.3536 301.312 64.302 301.342 64.2603C301.373 64.2186 301.418 64.1897 301.468 64.1793C301.519 64.1689 301.572 64.1777 301.616 64.2041C301.66 64.2305 301.694 64.2724 301.709 64.3219C301.724 64.3713 301.72 64.4246 301.698 64.4714C301.676 64.5182 301.638 64.5551 301.59 64.575L301.866 65.726L302.809 69.975C303.579 73.621 304.622 78.564 305.775 84.026C306.975 89.832 308.033 95.062 308.737 98.657L308.726 98.625L310.415 102.196L310.852 103.164C310.91 103.273 310.953 103.39 310.98 103.511" fill="#5BAFE8"/>
<path d="M269.467 90.4509C269.372 90.0622 269.311 89.6661 269.284 89.2669C269.193 88.4319 269.074 87.3409 268.932 86.0269C268.652 83.2889 268.292 79.5029 267.919 75.3199C267.546 71.1369 267.23 67.3449 267.019 64.6009C266.927 63.2819 266.85 62.1869 266.792 61.3489C266.747 60.9506 266.737 60.549 266.763 60.1489C266.857 60.538 266.919 60.9345 266.946 61.3339C267.037 62.1689 267.155 63.2599 267.298 64.5749C267.578 67.3129 267.938 71.0979 268.311 75.2819C268.684 79.4659 269 83.2519 269.211 85.9969C269.303 87.3159 269.38 88.4109 269.438 89.2489C269.483 89.6473 269.493 90.0488 269.468 90.4489" fill="#5BAFE8"/>
<path d="M246.171 92.5889C246.171 92.5889 240.993 88.6609 239.73 88.4239C238.762 88.2419 232.983 88.3389 230.325 88.3939C229.829 88.3919 229.352 88.5838 228.996 88.9287C228.639 89.2736 228.432 89.7442 228.418 90.2399C228.418 90.3029 228.424 90.3658 228.435 90.4279C228.503 90.7425 228.657 91.032 228.881 91.2639C229.104 91.4958 229.387 91.6609 229.699 91.7409C229.296 91.8702 228.943 92.1234 228.692 92.4645C228.44 92.8056 228.303 93.2172 228.299 93.6409C228.277 95.1409 230.093 95.4569 230.093 95.4569C230.002 95.528 229.915 95.6052 229.834 95.6879C229.611 95.9152 229.452 96.1979 229.374 96.507C229.297 96.816 229.303 97.1402 229.393 97.4459C229.482 97.7517 229.652 98.028 229.884 98.2464C230.116 98.4647 230.402 98.6171 230.713 98.6879L231.533 98.8739C231.231 98.9979 230.97 99.2026 230.777 99.4657C230.584 99.7287 230.467 100.04 230.44 100.365C230.47 102.341 234.912 102.719 234.912 102.719C234.912 102.719 245.89 104.457 246.127 104.378C246.364 104.299 246.171 92.5889 246.171 92.5889Z" fill="#FFBE9D"/>
<path d="M231.346 86.059C231.333 86.5758 231.445 87.088 231.673 87.552C231.901 88.0159 232.238 88.4177 232.655 88.723L238.773 88.483C238.773 88.483 234.217 86.911 233.573 86.134C233.316 85.8165 233.023 85.5299 232.7 85.28C232.565 85.1883 232.408 85.1364 232.245 85.1303C232.082 85.1241 231.921 85.1641 231.78 85.2454C231.639 85.3268 231.524 85.4463 231.448 85.5903C231.372 85.7342 231.338 85.8967 231.35 86.059" fill="#FFBE9D"/>
<path d="M235.895 88.423C234.98 88.6354 234.037 88.7029 233.101 88.623C232.167 88.6715 231.231 88.6044 230.314 88.423C231.229 88.2105 232.172 88.143 233.108 88.223C234.042 88.1745 234.978 88.2417 235.895 88.423Z" fill="#EB996E"/>
<path d="M234.52 91.8379C232.935 92.2238 231.274 92.1646 229.72 91.6669C231.322 91.6393 232.924 91.6964 234.52 91.8379Z" fill="#EB996E"/>
<path d="M237.632 91.4021C237.723 91.4581 237.605 91.7911 237.26 92.0141C236.915 92.2371 236.56 92.2091 236.549 92.1031C236.538 91.9971 236.776 91.8601 237.049 91.6811C237.322 91.5021 237.544 91.3391 237.636 91.4011" fill="#EB996E"/>
<path d="M235.193 95.7152C233.441 95.9215 231.668 95.8632 229.934 95.5422C231.686 95.3358 233.459 95.3941 235.193 95.7152Z" fill="#EB996E"/>
<path d="M238.689 94.0789C238.738 94.0649 238.833 94.189 238.862 94.429C238.892 94.7496 238.797 95.0694 238.598 95.3225C238.399 95.5757 238.111 95.743 237.792 95.79C237.551 95.818 237.409 95.7549 237.411 95.7039C237.411 95.5959 237.937 95.5269 238.287 95.0779C238.637 94.6289 238.587 94.1019 238.687 94.0779" fill="#EB996E"/>
<path d="M236.117 99.5091C234.526 99.5787 232.934 99.382 231.408 98.9271C232.999 98.8585 234.59 99.0552 236.117 99.5091Z" fill="#EB996E"/>
<path d="M239.532 97.5801C239.582 97.5731 239.658 97.7071 239.651 97.9441C239.63 98.2481 239.516 98.5383 239.324 98.7751C238.876 99.3161 238.374 99.5131 238.317 99.4391C238.239 99.3451 238.642 98.9871 239.011 98.5321C239.38 98.0771 239.43 97.5981 239.532 97.5801Z" fill="#EB996E"/>
<path d="M315.903 135.096C316.986 134.99 318.03 134.633 318.951 134.053C319.872 133.473 320.645 132.686 321.208 131.754C321.333 131.543 321.441 131.254 321.278 131.07C321.214 131.017 321.14 130.977 321.061 130.953C320.981 130.929 320.898 130.922 320.815 130.931C319.101 130.916 317.399 131.208 315.788 131.793C315.693 131.814 315.604 131.855 315.526 131.913C315.448 131.971 315.383 132.045 315.336 132.13C315.301 132.267 315.308 132.412 315.357 132.545L316.002 135.03" fill="#084DA0"/>
<path d="M264.252 48.5491C264.252 48.5491 261.733 57.0041 262.428 56.5231C263.123 56.0421 264.628 54.7071 264.628 54.7071L264.252 48.5491Z" fill="#EBEBEB"/>
<path d="M264.398 52.447L263.02 55.739C262.888 56.081 262.798 56.4381 262.754 56.802C262.64 57.724 262.508 59.414 263.054 59.532C263.329 59.5468 263.604 59.4999 263.859 59.3947C264.114 59.2895 264.341 59.1287 264.526 58.924L264.398 52.447Z" fill="#263238"/>
<path d="M307.109 52.966C307.109 52.966 293.637 47.71 286.176 52.351C278.715 56.992 277.358 64.399 272.914 64.399C264.25 64.399 264.528 58.286 264.528 58.286L262.686 58.843C262.651 60.094 260.678 69.075 269.808 70.188C278.938 71.301 282.775 58.855 290.989 58.843C296.128 58.9321 301.137 60.472 305.438 63.285L311.338 59.553L307.109 52.966Z" fill="#263238"/>
<path d="M272.54 70.0401C274.866 68.6591 276.688 66.5693 277.74 64.0771C279.832 59.2491 284.326 53.7361 288.077 52.3501C291.828 50.9641 300.508 49.9991 306.503 53.9061L310.343 59.0931L305.358 62.3261C302.558 60.8568 299.614 59.6784 296.574 58.8091C290.374 57.0781 286.613 59.0331 283.011 62.4421C282.787 62.6541 282.582 62.8641 282.402 63.0671C280.663 64.9239 278.755 66.6142 276.702 68.1161C275.504 69.1065 274.07 69.7694 272.54 70.0401Z" fill="#455A64"/>
</g>
<mask id="mask6_50_897" style="mask-type:luminance" maskUnits="userSpaceOnUse" x="0" y="0" width="354" height="302">
<path d="M353.591 0.23291H0.40799V302H353.591V0.23291Z" fill="white"/>
</mask>
<g mask="url(#mask6_50_897)">
<path d="M105.203 39.6418C97.212 40.8728 91.354 34.1608 89.486 28.1848C87.762 22.6698 86.941 16.9298 84.519 11.6848C81.133 4.34882 72.165 0.959819 64.116 1.63782C56.067 2.31582 47.957 6.34982 40.833 10.1608L42.797 54.3038C42.797 54.3038 58.307 37.7908 65.759 37.4898C78.192 36.9898 77.515 57.4248 89.588 60.4418C89.588 60.4418 106.514 65.0308 117.957 50.2498C125.219 40.8698 125.857 29.4738 125.857 29.4738C125.857 29.4738 120.295 37.3158 105.198 39.6408" fill="#4C96ED"/>
<path d="M40.51 2.83691C40.62 2.83691 42.794 49.7079 45.367 107.523C47.941 165.359 49.938 212.232 49.829 212.237C49.72 212.242 47.546 165.377 44.972 107.537C42.399 49.7219 40.401 2.83691 40.51 2.83691Z" fill="#263238"/>
<g opacity="0.2">
<mask id="mask7_50_897" style="mask-type:luminance" maskUnits="userSpaceOnUse" x="83" y="25" width="20" height="28">
<path d="M102.618 25.1318H83.19V52.6378H102.618V25.1318Z" fill="white"/>
</mask>
<g mask="url(#mask7_50_897)">
<path d="M83.19 25.1357C84.5415 29.7976 86.5185 34.2548 89.067 38.3857C91.367 41.9857 94.858 45.0237 99.044 45.8957C99.8112 45.9999 100.563 46.1953 101.284 46.4777C101.643 46.624 101.956 46.8642 102.191 47.1732C102.426 47.4821 102.573 47.8484 102.617 48.2337C102.649 49.3907 101.455 50.1467 100.417 50.6587C98.9733 51.453 97.4281 52.0468 95.824 52.4237C94.206 52.7237 92.939 52.8937 91.824 51.6797C90.7508 50.6221 89.7829 49.4627 88.934 48.2177C85.286 42.0017 83.482 33.1107 83.185 26.0787" fill="black"/>
</g>
</g>
<path d="M93.996 53.4777C93.8683 53.4266 93.7477 53.3594 93.637 53.2777C93.41 53.1307 93.085 52.8987 92.683 52.5777C91.5633 51.6462 90.5723 50.5702 89.736 49.3777C88.5049 47.6026 87.5131 45.673 86.786 43.6387C85.9007 41.1583 85.1709 38.625 84.601 36.0537C83.5234 31.395 82.8423 26.6534 82.565 21.8797C82.465 20.0487 82.446 18.5647 82.448 17.5397C82.458 17.0637 82.467 16.6747 82.474 16.3597C82.4684 16.2217 82.4809 16.0835 82.511 15.9487C82.5423 16.0834 82.5568 16.2215 82.554 16.3597C82.567 16.6737 82.583 17.0597 82.602 17.5377C82.648 18.5597 82.708 20.0377 82.845 21.8607C83.2037 26.6079 83.9201 31.3213 84.988 35.9607C85.5547 38.5161 86.2696 41.0364 87.129 43.5087C87.8316 45.5222 88.7855 47.439 89.968 49.2137C90.7735 50.4047 91.7197 51.4942 92.786 52.4587C93.55 53.1337 94.019 53.4527 94 53.4817" fill="#263238"/>
</g>
<path d="M3.70799 217.652L109.282 234.935V217.652H3.70799Z" fill="#E0E0E0"/>
<path d="M125.863 254.996L231.437 272.279V254.996H125.863Z" fill="#E0E0E0"/>
<path d="M247.856 284.712L353.43 301.995V284.712H247.856Z" fill="#E0E0E0"/>
<path d="M109.282 204.703H3.70799V217.648H109.282V204.703Z" fill="#4C96ED"/>
<mask id="mask8_50_897" style="mask-type:luminance" maskUnits="userSpaceOnUse" x="0" y="0" width="354" height="302">
<path d="M353.591 0.23291H0.40799V302H353.591V0.23291Z" fill="white"/>
</mask>
<g mask="url(#mask8_50_897)">
<g opacity="0.3">
<mask id="mask9_50_897" style="mask-type:luminance" maskUnits="userSpaceOnUse" x="76" y="204" width="34" height="14">
<path d="M109.282 204.703H76.338V217.648H109.282V204.703Z" fill="white"/>
</mask>
<g mask="url(#mask9_50_897)">
<path d="M109.283 204.703H76.338V217.648H109.283V204.703Z" fill="black"/>
</g>
</g>
</g>
<path d="M231.437 242.051H125.863V254.996H231.437V242.051Z" fill="#4C96ED"/>
<mask id="mask10_50_897" style="mask-type:luminance" maskUnits="userSpaceOnUse" x="0" y="0" width="354" height="302">
<path d="M353.591 0.23291H0.40799V302H353.591V0.23291Z" fill="white"/>
</mask>
<g mask="url(#mask10_50_897)">
<g opacity="0.3">
<mask id="mask11_50_897" style="mask-type:luminance" maskUnits="userSpaceOnUse" x="198" y="242" width="34" height="13">
<path d="M231.437 242.051H198.492V254.996H231.437V242.051Z" fill="white"/>
</mask>
<g mask="url(#mask11_50_897)">
<path d="M231.437 242.051H198.492V254.996H231.437V242.051Z" fill="black"/>
</g>
</g>
</g>
<path d="M353.591 271.772H248.017V284.717H353.591V271.772Z" fill="#4C96ED"/>
<mask id="mask12_50_897" style="mask-type:luminance" maskUnits="userSpaceOnUse" x="0" y="0" width="354" height="302">
<path d="M353.591 0.23291H0.40799V302H353.591V0.23291Z" fill="white"/>
</mask>
<g mask="url(#mask12_50_897)">
<g opacity="0.3">
<mask id="mask13_50_897" style="mask-type:luminance" maskUnits="userSpaceOnUse" x="320" y="271" width="34" height="14">
<path d="M353.592 271.772H320.647V284.717H353.592V271.772Z" fill="white"/>
</mask>
<g mask="url(#mask13_50_897)">
<path d="M353.592 271.772H320.647V284.717H353.592V271.772Z" fill="black"/>
</g>
</g>
<path d="M288.529 224.653C288.529 225.221 288.697 225.776 289.013 226.248C289.328 226.72 289.777 227.088 290.301 227.305C290.826 227.523 291.403 227.58 291.96 227.469C292.517 227.358 293.029 227.085 293.43 226.683C293.832 226.282 294.105 225.77 294.216 225.213C294.327 224.656 294.27 224.079 294.052 223.554C293.835 223.03 293.467 222.581 292.995 222.266C292.523 221.95 291.968 221.782 291.4 221.782C290.639 221.782 289.908 222.084 289.37 222.623C288.831 223.161 288.529 223.892 288.529 224.653Z" fill="#EBEBEB"/>
</g>
</g>
</svg>
