<svg width="187" height="43" viewBox="0 0 187 43" fill="none" xmlns="http://www.w3.org/2000/svg">
<path d="M21.4375 15.3438L32.1875 4.71875L29.9375 2.09375L17.0625 14.8438V3H13.75V28.8438H17.0625V19.0625C17.4167 18.7708 17.7188 18.5104 17.9688 18.2812C18.2396 18.0312 18.5417 17.7604 18.875 17.4688L29.0938 29.4375L31.7812 27.125L21.4375 15.3438ZM24.3125 0.1875C26.4167 0.1875 28.3229 0.5 30.0312 1.125C31.7396 1.75 33.1875 2.60417 34.375 3.6875C35.5833 4.77083 36.5104 6.04167 37.1562 7.5C37.8021 8.9375 38.125 10.4688 38.125 12.0938V31.0938C38.125 32.7188 37.8021 34.2604 37.1562 35.7188C36.5104 37.1562 35.5833 38.4167 34.375 39.5C33.1875 40.5833 31.7396 41.4375 30.0312 42.0625C28.3229 42.6875 26.4167 43 24.3125 43H14.6875C12.5833 43 10.6771 42.6875 8.96875 42.0625C7.26042 41.4375 5.80208 40.5833 4.59375 39.5C3.40625 38.4167 2.48958 37.1562 1.84375 35.7188C1.19792 34.2604 0.875 32.7188 0.875 31.0938V12.0938C0.875 10.4688 1.19792 8.9375 1.84375 7.5C2.48958 6.04167 3.40625 4.77083 4.59375 3.6875C5.80208 2.60417 7.26042 1.75 8.96875 1.125C10.6771 0.5 12.5833 0.1875 14.6875 0.1875H24.3125ZM61.3125 0.1875C63.4167 0.1875 65.3229 0.5 67.0312 1.125C68.7396 1.75 70.1875 2.60417 71.375 3.6875C72.5833 4.77083 73.5104 6.04167 74.1562 7.5C74.8021 8.9375 75.125 10.4688 75.125 12.0938V31.0938C75.125 32.7188 74.8021 34.2604 74.1562 35.7188C73.5104 37.1562 72.5833 38.4167 71.375 39.5C70.1875 40.5833 68.7396 41.4375 67.0312 42.0625C65.3229 42.6875 63.4167 43 61.3125 43H51.6875C49.5833 43 47.6771 42.6875 45.9688 42.0625C44.2604 41.4375 42.8021 40.5833 41.5938 39.5C40.4062 38.4167 39.4896 37.1562 38.8438 35.7188C38.1979 34.2604 37.875 32.7188 37.875 31.0938V12.0938C37.875 10.4688 38.1979 8.9375 38.8438 7.5C39.4896 6.04167 40.4062 4.77083 41.5938 3.6875C42.8021 2.60417 44.2604 1.75 45.9688 1.125C47.6771 0.5 49.5833 0.1875 51.6875 0.1875H61.3125ZM67.75 8.0625L67.3125 5.4375L65.3438 3.4375L62.125 3H53.75L50.5625 3.4375L48.5625 5.4375L48.1875 8.0625V23.8125L48.5625 26.5L50.625 28.4688L53.75 28.8438H62.125L65.3438 28.4688L67.3125 26.5L67.75 23.8125V8.0625ZM64 25.2188L61.9375 25.5312H53.9375L51.9062 25.2188L51.4375 23.3438V8.375L51.75 6.65625L53.9375 6.3125H61.9375L64.125 6.65625L64.4375 8.5V23.4688L64 25.2188ZM98.3125 0.1875C100.417 0.1875 102.323 0.5 104.031 1.125C105.74 1.75 107.188 2.60417 108.375 3.6875C109.583 4.77083 110.51 6.04167 111.156 7.5C111.802 8.9375 112.125 10.4688 112.125 12.0938V31.0938C112.125 32.7188 111.802 34.2604 111.156 35.7188C110.51 37.1562 109.583 38.4167 108.375 39.5C107.188 40.5833 105.74 41.4375 104.031 42.0625C102.323 42.6875 100.417 43 98.3125 43H88.6875C86.5833 43 84.6771 42.6875 82.9688 42.0625C81.2604 41.4375 79.8021 40.5833 78.5938 39.5C77.4062 38.4167 76.4896 37.1562 75.8438 35.7188C75.1979 34.2604 74.875 32.7188 74.875 31.0938V12.0938C74.875 10.4688 75.1979 8.9375 75.8438 7.5C76.4896 6.04167 77.4062 4.77083 78.5938 3.6875C79.8021 2.60417 81.2604 1.75 82.9688 1.125C84.6771 0.5 86.5833 0.1875 88.6875 0.1875H98.3125ZM93.4375 3.5L91.7188 3H87.625L85 3.4375L83 5.4375V28.8438H86.3438V6.59375C86.6354 6.53125 86.8958 6.48958 87.125 6.46875C87.3542 6.44792 87.6042 6.39583 87.875 6.3125H91.4375C91.6667 6.39583 91.8854 6.44792 92.0938 6.46875C92.3229 6.48958 92.5521 6.53125 92.7812 6.59375V19.8438H96.125V6.59375L97.4688 6.3125H101.062C101.312 6.39583 101.562 6.44792 101.812 6.46875C102.062 6.48958 102.323 6.53125 102.594 6.59375V28.8438H105.906V5.4375L103.938 3.4375L101.312 3H97.2188L95.5312 3.5L94.4688 5.65625L93.4375 3.5ZM132.438 15.3438L143.188 4.71875L140.938 2.09375L128.062 14.8438V3H124.75V28.8438H128.062V19.0625C128.417 18.7708 128.719 18.5104 128.969 18.2812C129.24 18.0312 129.542 17.7604 129.875 17.4688L140.094 29.4375L142.781 27.125L132.438 15.3438ZM135.312 0.1875C137.417 0.1875 139.323 0.5 141.031 1.125C142.74 1.75 144.188 2.60417 145.375 3.6875C146.583 4.77083 147.51 6.04167 148.156 7.5C148.802 8.9375 149.125 10.4688 149.125 12.0938V31.0938C149.125 32.7188 148.802 34.2604 148.156 35.7188C147.51 37.1562 146.583 38.4167 145.375 39.5C144.188 40.5833 142.74 41.4375 141.031 42.0625C139.323 42.6875 137.417 43 135.312 43H125.688C123.583 43 121.677 42.6875 119.969 42.0625C118.26 41.4375 116.802 40.5833 115.594 39.5C114.406 38.4167 113.49 37.1562 112.844 35.7188C112.198 34.2604 111.875 32.7188 111.875 31.0938V12.0938C111.875 10.4688 112.198 8.9375 112.844 7.5C113.49 6.04167 114.406 4.77083 115.594 3.6875C116.802 2.60417 118.26 1.75 119.969 1.125C121.677 0.5 123.583 0.1875 125.688 0.1875H135.312ZM172.312 0.1875C174.417 0.1875 176.323 0.5 178.031 1.125C179.74 1.75 181.188 2.60417 182.375 3.6875C183.583 4.77083 184.51 6.04167 185.156 7.5C185.802 8.9375 186.125 10.4688 186.125 12.0938V31.0938C186.125 32.7188 185.802 34.2604 185.156 35.7188C184.51 37.1562 183.583 38.4167 182.375 39.5C181.188 40.5833 179.74 41.4375 178.031 42.0625C176.323 42.6875 174.417 43 172.312 43H162.688C160.583 43 158.677 42.6875 156.969 42.0625C155.26 41.4375 153.802 40.5833 152.594 39.5C151.406 38.4167 150.49 37.1562 149.844 35.7188C149.198 34.2604 148.875 32.7188 148.875 31.0938V12.0938C148.875 10.4688 149.198 8.9375 149.844 7.5C150.49 6.04167 151.406 4.77083 152.594 3.6875C153.802 2.60417 155.26 1.75 156.969 1.125C158.677 0.5 160.583 0.1875 162.688 0.1875H172.312ZM178.562 3H175.25V23.4688C175.208 23.7396 175.135 24.0312 175.031 24.3438C174.948 24.6562 174.865 24.9479 174.781 25.2188L172.75 25.5312H164.75L162.688 25.2188L162.25 23.3438V3H159V23.8125L159.375 26.5L161.406 28.4688L164.562 28.8438H172.938L176.125 28.4688L178.125 26.5L178.562 23.8125V3Z" fill="#2B65FC"/>
</svg>
